# xmcd
#
# Track frame offsets:
#  150
#  12292
#  24927
#  35170
#  46522
#  57575
#  70470
#  80977
#  93357
#  106602
#
# Disc length: 1546 seconds
#
# Revision: 1
# Processed by: cddbd v1.4PL0 Copyright (c) Steve Scherf et al.
# Submitted via: AltoMP3_Maker 3.0
#
DISCID=7b06080a
DTITLE=Homer and Jethro - Lassoes 'n Spurs
DYEAR=1900
DGENRE=
TTITLE0=The Battle Of Kookamonga
TTITLE1=Cold, Cold Heart No. 2
TTITLE2=Sixteen Tons
TTITLE3=He'll Have To Go
TTITLE4=Let Me Go, Blubber
TTITLE5=(How Much Is) That Hound Dog In The Window
TTITLE6=Hartbrake Motel
TTITLE7=Jambowlliar
TTITLE8=Baby, It's Cold Outside
TTITLE9=Mister Sandman
EXTD=
EXTT0=
EXTT1=
EXTT2=
EXTT3=
EXTT4=
EXTT5=
EXTT6=
EXTT7=
EXTT8=
EXTT9=
PLAYORDER=
